<?xml version="1.0" encoding="UTF-8" standalone="no"?>
<!DOCTYPE svg PUBLIC "-//W3C//DTD SVG 20010904//EN"
"http://www.w3.org/TR/2001/REC-SVG-20010904/DTD/svg10.dtd">

<svg xmlns="http://www.w3.org/2000/svg" width="67.5641mm" height="71.2895mm" viewBox="0 0 798 842">
<path id="靸択範囲"
fill="none" stroke="black" stroke-width="1"
d="M 497.00,9.00 C 497.33,15.65 499.76,18.81 498.03,24.00 498.03,24.00 485.14,52.00 485.14,52.00 482.70,57.47 479.76,61.71 481.65,68.00 482.87,72.08 492.62,85.83 496.17,87.83 499.71,89.81 504.51,88.25 508.82,91.56 511.42,93.56 517.81,101.33 516.13,104.70 515.44,106.07 513.23,107.67 511.99,108.56 510.07,109.94 507.31,111.73 505.00,112.27 505.00,112.27 479.00,110.93 479.00,110.93 479.00,110.93 458.00,110.93 458.00,110.93 454.51,112.09 434.08,125.66 430.00,128.58 427.29,130.51 420.83,135.62 418.00,136.27 413.59,137.28 405.34,135.09 400.91,134.15 400.91,134.15 370.00,128.92 370.00,128.92 364.19,127.97 358.45,128.19 354.60,122.83 349.63,115.91 355.20,103.44 348.77,98.09 345.48,95.35 331.16,87.43 327.00,86.04 322.98,84.70 314.01,83.11 311.10,81.15 307.87,78.98 305.44,73.41 303.00,70.00 298.44,73.27 291.65,79.62 289.72,85.00 288.35,88.84 289.25,93.09 289.72,97.00 289.72,97.00 292.00,118.00 292.00,118.00 283.07,108.49 257.92,92.05 246.00,83.13 242.14,80.24 232.17,74.05 230.60,69.96 229.88,68.11 230.00,65.02 230.00,63.00 230.00,63.00 230.00,51.00 230.00,51.00 225.96,55.04 223.27,61.73 221.00,67.00 221.00,67.00 215.00,63.00 215.00,63.00 215.00,63.00 220.00,69.00 220.00,69.00 220.00,69.00 218.00,73.00 218.00,73.00 218.00,73.00 204.00,65.20 204.00,65.20 204.00,65.20 172.00,45.60 172.00,45.60 166.93,42.55 160.08,36.68 154.00,38.00 154.00,38.00 153.00,35.00 153.00,35.00 153.00,35.00 136.00,30.00 136.00,30.00 136.00,30.00 101.00,18.63 101.00,18.63 101.00,18.63 84.77,17.09 84.77,17.09 84.77,17.09 84.00,19.00 84.00,19.00 84.00,19.00 57.00,12.49 57.00,12.49 57.00,12.49 46.00,9.00 46.00,9.00 48.70,14.71 66.63,33.59 72.00,39.00 67.85,42.55 75.33,48.29 77.72,51.00 77.72,51.00 105.00,80.00 105.00,80.00 105.00,80.00 97.00,76.00 97.00,76.00 95.79,82.48 98.46,85.55 101.58,91.00 101.58,91.00 112.41,110.00 112.41,110.00 114.35,113.49 118.15,119.10 117.00,123.00 117.00,123.00 120.92,133.00 120.92,133.00 120.92,133.00 140.67,162.00 140.67,162.00 143.44,166.21 150.01,174.00 149.26,179.00 148.73,182.54 143.90,187.98 141.63,191.00 135.11,199.64 129.57,205.04 127.00,216.00 127.00,216.00 125.00,212.00 125.00,212.00 125.00,212.00 127.00,210.00 127.00,210.00 127.00,210.00 126.00,209.00 126.00,209.00 121.66,214.46 118.02,225.27 115.15,232.00 115.15,232.00 103.72,259.00 103.72,259.00 99.46,268.90 96.03,273.96 96.00,285.00 96.00,285.00 92.00,283.00 92.00,283.00 92.00,283.00 90.82,316.00 90.82,316.00 90.82,316.00 90.82,350.00 90.82,350.00 90.82,350.00 92.74,363.00 92.74,363.00 92.74,363.00 101.66,389.00 101.66,389.00 101.66,389.00 116.86,432.00 116.86,432.00 116.86,432.00 128.00,457.00 128.00,457.00 128.00,457.00 88.00,436.00 88.00,436.00 88.00,436.00 89.00,438.00 89.00,438.00 89.00,438.00 76.00,433.22 76.00,433.22 76.00,433.22 55.00,427.63 55.00,427.63 49.81,426.33 44.34,423.96 39.00,425.00 39.00,425.00 39.00,423.00 39.00,423.00 39.00,423.00 34.00,425.00 34.00,425.00 34.00,425.00 34.00,426.00 34.00,426.00 34.00,426.00 36.00,426.00 36.00,426.00 36.00,426.00 0.00,420.00 0.00,420.00 0.00,420.00 14.30,443.83 14.30,443.83 14.30,443.83 19.83,459.04 19.83,459.04 19.83,459.04 37.63,486.00 37.63,486.00 42.78,494.26 43.09,498.64 45.72,503.00 45.72,503.00 66.65,534.00 66.65,534.00 66.65,534.00 75.63,551.17 75.63,551.17 75.63,551.17 107.73,589.00 107.73,589.00 111.23,593.07 119.35,600.93 120.00,606.00 120.00,606.00 131.00,613.00 131.00,613.00 131.00,613.00 125.00,612.00 125.00,612.00 128.75,616.42 142.55,625.91 148.00,628.00 148.00,628.00 137.00,631.00 137.00,631.00 141.19,633.72 152.63,637.40 158.00,639.42 167.53,643.02 172.87,646.65 183.00,648.00 183.00,648.00 179.00,652.00 179.00,652.00 179.00,652.00 191.00,651.00 191.00,651.00 191.00,651.00 183.00,656.00 183.00,656.00 183.00,656.00 188.00,655.00 188.00,655.00 188.00,655.00 186.00,657.00 186.00,657.00 186.00,657.00 185.00,657.00 185.00,657.00 185.00,657.00 198.00,657.00 198.00,657.00 198.00,657.00 194.00,659.00 194.00,659.00 194.00,659.00 205.00,661.00 205.00,661.00 205.00,661.00 196.00,662.00 196.00,662.00 201.01,665.31 212.88,665.98 219.00,666.00 219.00,666.00 216.00,671.00 216.00,671.00 216.00,671.00 230.00,674.00 230.00,674.00 230.00,674.00 224.00,675.00 224.00,675.00 228.12,677.39 240.82,678.65 246.00,679.17 246.00,679.17 279.00,681.00 279.00,681.00 279.00,681.00 301.00,682.00 301.00,682.00 301.00,682.00 298.00,685.00 298.00,685.00 298.00,685.00 302.00,690.00 302.00,690.00 304.15,690.40 305.14,691.19 306.00,689.00 306.00,689.00 312.00,690.00 312.00,690.00 312.00,690.00 310.00,693.00 310.00,693.00 310.00,693.00 316.00,692.00 316.00,692.00 316.00,692.00 313.00,693.00 313.00,693.00 313.00,693.00 324.00,694.00 324.00,694.00 324.00,694.00 323.00,696.00 323.00,696.00 323.00,696.00 357.00,692.00 357.00,692.00 358.80,694.89 361.40,696.86 363.75,699.29 377.57,713.58 383.89,717.20 402.00,725.00 402.00,725.00 390.36,741.00 390.36,741.00 390.36,741.00 352.75,806.00 352.75,806.00 346.68,818.16 347.88,815.27 344.29,828.00 343.55,830.61 341.95,835.03 343.38,837.57 344.48,839.53 346.98,839.98 349.00,840.38 349.00,840.38 367.00,842.00 367.00,842.00 367.00,842.00 394.00,841.09 394.00,841.09 398.76,840.76 407.61,840.53 411.88,838.74 417.02,836.58 417.61,826.84 419.61,822.00 422.86,814.14 431.98,803.02 438.00,797.00 440.27,794.73 444.54,789.98 447.58,789.14 449.61,788.58 453.84,789.61 456.00,790.00 456.00,790.00 454.83,797.00 454.83,797.00 454.83,797.00 460.80,806.00 460.80,806.00 460.80,806.00 473.04,821.00 473.04,821.00 473.04,821.00 488.00,834.83 488.00,834.83 488.00,834.83 510.00,837.16 510.00,837.16 510.00,837.16 532.00,839.00 532.00,839.00 532.00,839.00 563.00,839.00 563.00,839.00 563.00,839.00 578.00,838.00 578.00,838.00 578.00,838.00 563.18,824.91 563.18,824.91 563.18,824.91 540.98,793.00 540.98,793.00 540.98,793.00 528.10,773.42 528.10,773.42 528.10,773.42 528.10,766.00 528.10,766.00 528.10,766.00 534.00,769.00 534.00,769.00 534.00,769.00 535.00,756.00 535.00,756.00 537.93,755.89 546.52,752.97 548.40,750.69 550.88,747.69 549.76,743.00 545.94,741.62 543.19,740.62 538.23,742.59 535.00,743.00 537.28,740.14 540.49,736.12 542.27,733.00 543.87,730.22 544.68,726.89 547.27,724.81 549.95,722.67 560.13,719.49 564.00,717.68 570.21,714.78 587.14,704.37 592.00,699.91 592.00,699.91 623.33,669.99 623.33,669.99 623.33,669.99 632.03,658.00 632.03,658.00 634.17,654.17 633.83,651.75 636.31,649.98 639.60,647.64 652.10,647.86 657.00,646.59 660.32,645.73 664.90,642.47 668.00,640.60 675.03,636.36 685.99,631.11 690.00,624.00 690.00,624.00 700.00,627.77 700.00,627.77 700.00,627.77 719.00,617.40 719.00,617.40 719.00,617.40 760.00,593.00 760.00,593.00 758.78,587.81 756.58,582.94 754.60,578.00 753.83,576.07 751.97,572.01 752.21,570.04 752.56,567.08 755.46,565.62 758.00,564.80 762.05,563.50 772.61,562.63 777.00,563.00 782.64,556.36 789.58,554.39 798.00,554.00 794.98,551.67 792.41,551.43 789.00,549.96 775.29,544.03 782.08,545.00 766.00,545.00 768.12,541.48 775.36,531.51 775.10,528.00 774.88,525.08 771.43,521.31 769.65,519.00 769.65,519.00 755.65,501.00 755.65,501.00 754.29,499.24 750.79,495.10 750.58,493.01 750.28,490.07 755.12,485.98 757.09,483.96 757.09,483.96 770.80,471.53 770.80,471.53 775.72,466.62 779.13,461.09 786.00,459.00 785.55,451.74 790.63,435.09 792.50,427.00 792.50,427.00 794.34,419.00 794.34,419.00 794.34,419.00 794.34,413.00 794.34,413.00 794.34,413.00 794.34,406.00 794.34,406.00 794.34,406.00 793.00,388.00 793.00,388.00 793.00,388.00 792.00,371.00 792.00,371.00 792.00,371.00 788.58,361.00 788.58,361.00 788.58,361.00 779.00,336.00 779.00,336.00 779.00,336.00 778.00,336.00 778.00,336.00 778.00,336.00 776.00,338.00 776.00,338.00 777.14,330.25 773.90,327.49 770.00,321.00 770.00,321.00 754.00,294.00 754.00,294.00 754.00,294.00 751.00,295.00 751.00,295.00 751.00,295.00 753.00,293.00 753.00,293.00 753.00,293.00 753.00,292.00 753.00,292.00 753.00,292.00 750.00,291.00 750.00,291.00 750.00,291.00 745.00,277.00 745.00,277.00 745.00,277.00 759.00,298.00 759.00,298.00 759.00,298.00 768.00,309.00 768.00,309.00 768.00,309.00 765.00,302.00 765.00,302.00 765.00,302.00 763.00,302.00 763.00,302.00 763.00,302.00 758.00,288.00 758.00,288.00 758.00,288.00 768.00,295.00 768.00,295.00 768.00,295.00 751.82,270.91 751.82,270.91 751.82,270.91 723.85,233.00 723.85,233.00 723.85,233.00 711.00,215.00 711.00,215.00 711.00,215.00 714.00,216.00 714.00,216.00 714.00,216.00 708.31,202.00 708.31,202.00 708.31,202.00 698.73,183.00 698.73,183.00 698.73,183.00 672.00,154.00 672.00,154.00 671.20,158.53 676.74,169.65 679.00,174.00 679.00,174.00 670.13,168.90 670.13,168.90 670.13,168.90 662.00,163.00 662.00,163.00 662.00,163.00 662.00,158.00 662.00,158.00 662.00,158.00 659.00,159.00 659.00,159.00 655.53,153.06 651.49,152.43 648.89,147.83 647.00,144.48 646.69,132.88 647.50,129.17 647.50,129.17 650.00,122.00 650.00,122.00 645.59,117.53 647.31,114.71 647.38,109.00 647.38,109.00 647.38,93.00 647.38,93.00 647.38,93.00 643.76,72.00 643.76,72.00 643.41,70.39 643.71,69.51 643.76,68.00 643.76,68.00 640.76,56.00 640.76,56.00 640.76,56.00 637.71,46.00 637.71,46.00 637.71,46.00 636.89,39.00 636.89,39.00 636.89,39.00 635.00,29.00 635.00,29.00 628.56,30.54 624.49,34.21 619.00,37.63 612.99,41.38 605.41,44.44 602.00,51.00 596.98,50.92 594.15,53.70 590.00,56.32 590.00,56.32 568.00,71.00 568.00,71.00 568.00,71.00 564.75,56.00 564.75,56.00 564.75,56.00 545.58,20.00 545.58,20.00 540.58,11.14 537.03,3.28 526.00,0.67 520.39,-0.65 503.20,6.93 497.00,9.00 Z
M 153.00,36.00 C 153.00,36.00 153.00,37.00 153.00,37.00 153.00,37.00 152.00,36.00 152.00,36.00 152.00,36.00 153.00,36.00 153.00,36.00 Z
M 632.00,36.00 C 632.00,36.00 632.00,37.00 632.00,37.00 632.00,37.00 631.00,36.00 631.00,36.00 631.00,36.00 632.00,36.00 632.00,36.00 Z
M 73.00,39.00 C 73.00,39.00 73.00,40.00 73.00,40.00 73.00,40.00 72.00,39.00 72.00,39.00 72.00,39.00 73.00,39.00 73.00,39.00 Z
C 74.00,40.00 75.00,43.00 75.00,43.00 75.00,43.00 72.00,41.00 72.00,41.00 72.00,41.00 74.00,40.00 74.00,40.00 Z
M 593.00,57.00 C 593.00,57.00 593.00,58.00 593.00,58.00
M 74.00,40.00 593.00,58.00 592.00,57.00 592.00,57.00 592.00,57.00 593.00,57.00 593.00,57.00 Z
M 582.00,65.00 C 582.00,65.00 582.00,66.00 582.00,66.00 582.00,66.00 581.00,65.00 581.00,65.00 581.00,65.00 582.00,65.00 582.00,65.00 Z
M 94.00,75.00 C 94.00,75.00 94.00,76.00 94.00,76.00 94.00,76.00 95.00,75.00 95.00,75.00 95.00,75.00 94.00,75.00 94.00,75.00 Z
M 106.00,80.00 C 106.00,80.00 106.00,81.00 106.00,81.00 106.00,81.00 105.00,80.00 105.00,80.00 105.00,80.00 106.00,80.00 106.00,80.00 Z
M 121.00,126.00 C 121.00,126.00 121.00,127.00 121.00,127.00 121.00,127.00 120.00,126.00 120.00,126.00 120.00,126.00 121.00,126.00 121.00,126.00 Z
M 117.00,127.00 C 117.00,127.00 117.00,128.00 117.00,128.00 117.00,128.00 118.00,127.00 118.00,127.00 118.00,127.00 117.00,127.00 117.00,127.00 Z
M 368.00,130.00 C 368.00,130.00 368.00,131.00 368.00,131.00 368.00,131.00 367.00,130.00 367.00,130.00 367.00,130.00 368.00,130.00 368.00,130.00 Z
M 122.00,131.00 C 122.00,131.00 122.00,132.00 122.00,132.00 122.00,132.00 121.00,131.00 121.00,131.00 121.00,131.00 122.00,131.00 122.00,131.00 Z
M 124.00,222.00 C 124.00,222.00 124.00,223.00 124.00,223.00 124.00,223.00 123.00,222.00 123.00,222.00 123.00,222.00 124.00,222.00 124.00,222.00 Z
M 715.00,231.00 C 715.00,231.00 715.00,232.00 715.00,232.00 715.00,232.00 714.00,231.00 714.00,231.00 714.00,231.00 715.00,231.00 715.00,231.00 Z
M 716.00,233.00 C 716.00,233.00 716.00,234.00 716.00,234.00 716.00,234.00 715.00,233.00 715.00,233.00 715.00,233.00 716.00,233.00 716.00,233.00 Z
M 717.00,234.00 C 717.00,234.00 717.00,235.00 717.00,235.00 717.00,235.00 716.00,234.00 716.00,234.00 716.00,234.00 717.00,234.00 717.00,234.00 Z
M 721.00,240.00 C 721.00,240.00 721.00,241.00 721.00,241.00 721.00,241.00 720.00,240.00 720.00,240.00 720.00,240.00 721.00,240.00 721.00,240.00 Z
M 723.00,243.00 C 723.00,243.00 723.00,244.00 723.00,244.00 723.00,244.00 722.00,243.00 722.00,243.00 722.00,243.00 723.00,243.00 723.00,243.00 Z
M 724.00,244.00 C 724.00,244.00 724.00,245.00 724.00,245.00 724.00,245.00 723.00,244.00 723.00,244.00 723.00,244.00 724.00,244.00 724.00,244.00 Z
M 725.00,246.00 C 725.00,246.00 725.00,247.00 725.00,247.00 725.00,247.00 724.00,246.00 724.00,246.00 724.00,246.00 725.00,246.00 725.00,246.00 Z
M 726.00,247.00 C 726.00,247.00 726.00,248.00 726.00,248.00 726.00,248.00 725.00,247.00 725.00,247.00 725.00,247.00 726.00,247.00 726.00,247.00 Z
M 727.00,249.00 C 727.00,249.00 727.00,250.00 727.00,250.00 727.00,250.00 726.00,249.00 726.00,249.00 726.00,249.00 727.00,249.00 727.00,249.00 Z
M 728.00,250.00 C 728.00,250.00 728.00,251.00 728.00,251.00 728.00,251.00 727.00,250.00 727.00,250.00 727.00,250.00 728.00,250.00 728.00,250.00 Z
M 729.00,252.00 C 729.00,252.00 729.00,253.00 729.00,253.00 729.00,253.00 728.00,252.00 728.00,252.00 728.00,252.00 729.00,252.00 729.00,252.00 Z
M 733.00,258.00 C 733.00,258.00 733.00,259.00 733.00,259.00 733.00,259.00 732.00,258.00 732.00,258.00 732.00,258.00 733.00,258.00 733.00,258.00 Z
M 737.00,264.00 C 737.00,264.00 745.00,277.00 745.00,277.00 741.17,274.79 736.49,268.56 737.00,264.00 Z
M 751.00,293.00 C 751.00,293.00 751.00,294.00 751.00,294.00 751.00,294.00 750.00,293.00 750.00,293.00 750.00,293.00 751.00,293.00 751.00,293.00 Z
M 768.00,310.00 C 768.00,310.00 768.00,311.00 768.00,311.00 768.00,311.00 769.00,310.00 769.00,310.00 769.00,310.00 768.00,310.00 768.00,310.00 Z
M 91.00,359.00 C 91.00,359.00 91.00,360.00 91.00,360.00 91.00,360.00 92.00,359.00 92.00,359.00 92.00,359.00 91.00,359.00 91.00,359.00 Z
M 84.00,434.00 C 84.00,434.00 84.00,435.00 84.00,435.00 84.00,435.00 85.00,434.00 85.00,434.00 85.00,434.00 84.00,434.00 84.00,434.00 Z
M 86.00,435.00 C 86.00,435.00 86.00,436.00 86.00,436.00 86.00,436.00 87.00,435.00 87.00,435.00 87.00,435.00 86.00,435.00 86.00,435.00 Z
M 45.00,498.00 C 45.00,498.00 45.00,499.00 45.00,499.00 45.00,499.00 44.00,498.00 44.00,498.00 44.00,498.00 45.00,498.00 45.00,498.00 Z
M 532.00,754.00 C 532.00,754.00 530.00,766.00 530.00,766.00 528.30,761.67 529.12,757.59 532.00,754.00 Z" />
</svg>
