<?xml version="1.0" encoding="UTF-8" standalone="no"?>
<!DOCTYPE svg PUBLIC "-//W3C//DTD SVG 20010904//EN"
              "http://www.w3.org/TR/2001/REC-SVG-20010904/DTD/svg10.dtd">

<svg xmlns="http://www.w3.org/2000/svg"
     width="6.31111in" height="6.5in"
     viewBox="0 0 568 585">
  <path id="選択範囲"
        fill="none" stroke="black" stroke-width="1"
        d="M 267.00,1.00
           C 267.00,1.00 267.00,44.00 267.00,44.00
             243.28,44.02 210.23,52.18 188.00,60.58
             111.86,89.32 52.19,150.50 26.67,228.00
             15.53,261.85 12.59,290.65 13.00,326.00
             13.00,326.00 13.91,336.00 13.91,336.00
             15.50,358.73 20.22,382.56 28.05,404.00
             28.05,404.00 37.31,427.00 37.31,427.00
             38.41,429.41 41.43,434.25 40.59,436.79
             39.67,439.57 32.61,442.91 30.00,444.42
             30.00,444.42 1.00,461.00 1.00,461.00
             2.58,468.77 11.91,482.26 16.00,490.00
             23.29,488.62 38.79,478.56 46.00,474.42
             48.78,472.82 55.99,468.00 58.96,468.66
             62.25,469.39 67.25,477.18 69.37,480.00
             74.90,487.33 85.51,499.62 92.00,505.99
             116.06,529.57 144.21,548.54 175.00,562.14
             265.83,602.27 374.32,588.45 452.00,526.40
             468.83,512.96 479.31,502.56 493.08,486.00
             497.41,480.80 505.47,470.93 508.00,465.00
             508.00,465.00 550.00,489.00 550.00,489.00
             555.01,484.74 559.92,474.97 563.28,469.00
             564.64,466.58 567.19,463.05 565.87,460.21
             564.76,457.81 557.53,454.12 555.00,452.60
             555.00,452.60 526.00,436.00 526.00,436.00
             526.00,436.00 539.31,404.00 539.31,404.00
             546.77,383.03 553.97,349.17 554.00,327.00
             554.04,302.94 554.37,286.07 549.55,262.00
             537.30,200.75 504.72,144.28 456.00,104.80
             422.30,77.50 382.59,57.82 340.00,49.00
             340.00,49.00 314.00,45.00 314.00,45.00
             311.21,44.76 303.45,44.26 301.60,42.40
             299.68,40.47 300.01,36.54 300.00,34.00
             300.00,34.00 300.00,1.00 300.00,1.00
             300.00,1.00 267.00,1.00 267.00,1.00 Z
           M 267.00,94.00
           C 267.00,94.00 267.00,190.00 267.00,190.00
             267.00,190.00 230.00,190.00 230.00,190.00
             230.00,190.00 246.74,224.00 246.74,224.00
             246.74,224.00 271.26,272.00 271.26,272.00
             271.26,272.00 284.00,297.00 284.00,297.00
             284.00,297.00 293.86,279.00 293.86,279.00
             293.86,279.00 319.25,230.00 319.25,230.00
             319.25,230.00 339.00,190.00 339.00,190.00
             339.00,190.00 300.00,190.00 300.00,190.00
             300.00,190.00 300.00,94.00 300.00,94.00
             323.14,94.00 349.84,101.59 371.00,110.72
             456.64,147.66 506.07,228.80 505.00,321.00
             505.00,321.00 504.09,331.00 504.09,331.00
             502.72,349.74 499.06,368.19 493.00,386.00
             491.83,389.43 485.73,405.70 484.01,407.67
             480.32,411.87 468.88,403.37 465.00,401.15
             465.00,401.15 422.00,376.28 422.00,376.28
             418.87,374.50 407.40,368.49 406.13,365.79
             404.67,362.72 407.66,358.61 409.15,356.00
             409.15,356.00 422.00,333.00 422.00,333.00
             422.00,333.00 403.00,331.91 403.00,331.91
             403.00,331.91 393.00,331.00 393.00,331.00
             393.00,331.00 365.00,330.00 365.00,330.00
             365.00,330.00 346.00,329.00 346.00,329.00
             346.00,329.00 329.00,328.00 329.00,328.00
             329.00,328.00 302.00,327.00 302.00,327.00
             302.00,327.00 320.05,355.00 320.05,355.00
             320.05,355.00 351.00,403.00 351.00,403.00
             351.00,403.00 368.00,428.00 368.00,428.00
             368.00,428.00 381.40,404.00 381.40,404.00
             381.40,404.00 387.21,396.24 387.21,396.24
             387.21,396.24 394.00,398.16 394.00,398.16
             394.00,398.16 408.00,406.15 408.00,406.15
             408.00,406.15 465.00,439.00 465.00,439.00
             462.38,447.20 452.96,456.69 447.09,463.00
             430.59,480.74 417.86,491.71 397.00,504.20
             321.39,549.48 225.44,544.48 154.00,493.42
             138.68,482.47 137.07,480.07 124.00,467.00
             116.67,459.67 107.76,450.24 103.00,441.00
             103.00,441.00 147.00,415.58 147.00,415.58
             147.00,415.58 181.00,396.00 181.00,396.00
             181.00,396.00 199.00,428.00 199.00,428.00
             199.00,428.00 201.00,428.00 201.00,428.00
             201.00,428.00 216.66,403.00 216.66,403.00
             216.66,403.00 248.05,354.00 248.05,354.00
             248.05,354.00 265.00,327.00 265.00,327.00
             265.00,327.00 246.00,328.00 246.00,328.00
             246.00,328.00 201.00,330.00 201.00,330.00
             201.00,330.00 186.00,331.00 186.00,331.00
             186.00,331.00 159.00,332.00 159.00,332.00
             159.00,332.00 145.00,333.00 145.00,333.00
             149.49,340.49 161.94,360.78 164.00,368.00
             164.00,368.00 146.00,378.15 146.00,378.15
             146.00,378.15 110.00,398.85 110.00,398.85
             110.00,398.85 85.00,412.00 85.00,412.00
             72.47,382.91 66.21,364.97 63.04,333.00
             63.04,333.00 63.04,323.00 63.04,323.00
             63.04,323.00 62.04,315.00 62.04,315.00
             62.04,315.00 63.00,304.00 63.00,304.00
             63.00,304.00 63.00,295.00 63.00,295.00
             63.00,295.00 65.59,277.00 65.59,277.00
             77.87,203.81 123.96,144.66 191.00,113.22
             212.82,102.99 242.81,94.00 267.00,94.00 Z" />
</svg>
