<?xml version="1.0" encoding="UTF-8" standalone="no"?>
<!DOCTYPE svg PUBLIC "-//W3C//DTD SVG 20010904//EN"
              "http://www.w3.org/TR/2001/REC-SVG-20010904/DTD/svg10.dtd">

<svg xmlns="http://www.w3.org/2000/svg"
     width="11.1111in" height="11.1111in"
     viewBox="0 0 1000 1000">
  <path id="選択範囲"
        fill="none" stroke="black" stroke-width="1"
        d="M 485.00,229.42
           C 485.00,229.42 461.00,232.28 461.00,232.28
             446.91,234.18 425.48,239.67 412.00,244.34
             348.23,266.48 295.41,311.65 263.31,371.00
             228.72,434.95 221.54,511.62 243.02,581.00
             247.09,594.13 252.52,606.53 258.21,619.00
             258.21,619.00 261.90,628.00 261.90,628.00
             268.63,641.17 275.61,650.34 284.37,662.00
             327.25,719.06 389.44,756.62 460.00,767.58
             460.00,767.58 479.00,770.00 479.00,770.00
             479.00,770.00 488.00,770.00 488.00,770.00
             488.00,770.00 498.00,771.00 498.00,771.00
             498.00,771.00 505.00,771.00 505.00,771.00
             505.00,771.00 515.00,769.96 515.00,769.96
             515.00,769.96 525.00,769.96 525.00,769.96
             558.80,766.61 583.94,759.41 615.00,746.00
             642.24,734.24 672.09,712.90 693.00,692.00
             710.99,674.02 729.83,649.57 741.68,627.00
             741.68,627.00 748.30,612.00 748.30,612.00
             795.65,507.00 771.70,381.00 687.00,302.09
             657.34,274.46 623.34,255.07 585.00,242.33
             566.55,236.21 549.22,233.14 530.00,230.85
             516.58,229.24 498.36,227.80 485.00,229.42 Z
           M 484.00,279.40
           C 512.62,277.13 541.61,280.51 569.00,289.02
             590.29,295.64 615.14,308.35 633.00,321.63
             702.38,373.23 735.48,459.37 718.55,544.00
             715.66,558.48 709.52,578.79 703.10,592.00
             703.10,592.00 697.26,602.00 697.26,602.00
             690.56,614.74 681.64,629.95 672.54,641.00
             652.38,665.47 627.27,684.63 599.00,698.75
             574.52,710.98 539.46,720.96 512.00,721.00
             512.00,721.00 489.00,721.00 489.00,721.00
             474.05,720.82 452.47,716.17 438.00,712.00
             400.87,701.29 367.25,680.15 340.91,652.00
             335.13,645.82 329.50,639.86 324.49,633.00
             318.92,625.37 310.73,611.49 306.22,603.00
             306.22,603.00 298.43,588.00 298.43,588.00
             289.05,566.09 283.43,542.70 281.04,519.00
             281.04,519.00 281.04,509.00 281.04,509.00
             281.04,509.00 280.04,501.00 280.04,501.00
             280.04,501.00 281.04,490.00 281.04,490.00
             281.04,490.00 281.04,480.00 281.04,480.00
             282.55,465.46 285.55,450.00 289.72,436.00
             310.46,366.40 364.32,312.25 433.00,289.35
             449.65,283.80 466.66,281.33 484.00,279.40 Z" />
</svg>
