<?xml version="1.0" encoding="UTF-8" standalone="no"?>
<!DOCTYPE svg PUBLIC "-//W3C//DTD SVG 20010904//EN"
              "http://www.w3.org/TR/2001/REC-SVG-20010904/DTD/svg10.dtd">

<svg xmlns="http://www.w3.org/2000/svg"
     width="36.2845mm" height="34.6154mm"
     viewBox="0 0 500 477">
  <path id="靸択範囲"
        fill="none" stroke="black" stroke-width="1"
        d="M 246.00,0.53
           C 242.91,1.49 240.79,2.26 238.33,4.53 234.14,8.40 224.01,30.49 220.75,37.00 220.75,37.00 187.25,105.00 187.25,105.00 182.83,113.83 175.11,131.40 168.91,137.99 156.94,150.68 141.12,150.89 125.00,153.13 125.00,153.13 46.00,164.58 46.00,164.58 46.00,164.58 24.00,167.87 24.00,167.87 15.32,169.09 8.17,168.85 2.70,177.00 -7.43,192.10 13.10,207.55 23.00,216.28 23.00,216.28 53.00,246.00 53.00,246.00 53.00,246.00 65.00,257.04 65.00,257.04 65.00,257.04 82.00,274.00 82.00,274.00 89.88,281.88 104.74,294.42 108.96,304.00 115.28,318.38 109.60,336.88 107.08,352.00 107.08,352.00 94.75,424.00 94.75,424.00 94.75,424.00 89.09,458.00 89.09,458.00 88.94,460.76 89.17,463.39 90.13,466.00 91.48,469.66 93.67,472.46 97.04,474.47 106.94,480.37 117.19,474.02 126.00,469.14 126.00,469.14 205.00,427.69 205.00,427.69 205.00,427.69 223.00,418.22 223.00,418.22 231.90,413.52 237.40,409.13 248.00,409.00 251.13,408.97 254.97,408.87 258.00,409.52 265.29,411.07 287.19,423.47 295.00,427.69 295.00,427.69 374.00,469.14 374.00,469.14 382.81,474.02 393.06,480.37 402.96,474.47 406.33,472.46 408.52,469.66 409.87,466.00 410.83,463.39 411.06,460.76 410.91,458.00 410.91,458.00 404.42,419.00 404.42,419.00 404.42,419.00 393.58,355.00 393.58,355.00 393.58,355.00 388.01,320.00 388.01,320.00 387.57,300.34 399.38,292.62 412.00,280.00 412.00,280.00 435.00,257.04 435.00,257.04 435.00,257.04 445.00,247.99 445.00,247.99 445.00,247.99 474.00,219.09 474.00,219.09 484.17,209.61 508.12,193.13 497.30,177.00 491.83,168.85 484.68,169.09 476.00,167.87 476.00,167.87 454.00,164.58 454.00,164.58 454.00,164.58 375.00,153.13 375.00,153.13 359.64,150.99 343.70,150.63 332.04,138.96 324.87,131.79 317.57,114.64 312.75,105.00 312.75,105.00 277.25,33.00 277.25,33.00 277.25,33.00 269.25,17.00 269.25,17.00 263.82,6.15 260.19,-1.76 246.00,0.53 Z" />
</svg>
