<?xml version="1.0" encoding="UTF-8" standalone="no"?>
<!DOCTYPE svg PUBLIC "-//W3C//DTD SVG 20010904//EN"
              "http://www.w3.org/TR/2001/REC-SVG-20010904/DTD/svg10.dtd">

<svg xmlns="http://www.w3.org/2000/svg"
     width="11.1111in" height="11.1111in"
     viewBox="0 0 1000 1000">
  <path id="選択範囲 #1"
        fill="none" stroke="black" stroke-width="1"
        d="M 485.00,187.00
           C 485.00,187.00 485.00,376.00 485.00,376.00
             485.00,376.00 448.00,376.00 448.00,376.00
             449.57,384.38 460.40,402.59 464.74,411.00
             464.74,411.00 493.69,467.00 493.69,467.00
             493.69,467.00 502.00,483.00 502.00,483.00
             505.86,479.13 507.78,473.81 510.26,469.00
             510.26,469.00 521.25,448.00 521.25,448.00
             521.25,448.00 530.75,430.00 530.75,430.00
             530.75,430.00 542.42,407.00 542.42,407.00
             546.32,400.09 555.67,383.11 557.00,376.00
             557.00,376.00 518.00,376.00 518.00,376.00
             518.00,376.00 518.00,187.00 518.00,187.00
             518.00,187.00 485.00,187.00 485.00,187.00 Z" />
</svg>
