<?xml version="1.0" encoding="UTF-8" standalone="no"?>
<!DOCTYPE svg PUBLIC "-//W3C//DTD SVG 20010904//EN"
              "http://www.w3.org/TR/2001/REC-SVG-20010904/DTD/svg10.dtd">

<svg xmlns="http://www.w3.org/2000/svg"
     width="30.8in" height="28.2333in"
     viewBox="0 0 2772 2541">
  <path id="選択範囲"
        fill="none" stroke="black" stroke-width="1"
        d="M 1342.00,433.00
           C 1342.00,433.00 1342.00,1002.00 1342.00,1002.00
             1342.00,1002.00 1270.00,1002.00 1270.00,1002.00
             1270.00,1002.00 1229.00,1003.00 1229.00,1003.00
             1229.00,1003.00 1244.74,1035.00 1244.74,1035.00
             1244.74,1035.00 1279.74,1103.00 1279.74,1103.00
             1279.74,1103.00 1351.26,1242.00 1351.26,1242.00
             1351.26,1242.00 1378.78,1295.00 1378.78,1295.00
             1378.78,1295.00 1394.00,1324.00 1394.00,1324.00
             1394.00,1324.00 1404.25,1306.00 1404.25,1306.00
             1404.25,1306.00 1418.26,1279.00 1418.26,1279.00
             1418.26,1279.00 1463.26,1192.00 1463.26,1192.00
             1463.26,1192.00 1527.26,1068.00 1527.26,1068.00
             1527.26,1068.00 1547.31,1029.00 1547.31,1029.00
             1547.31,1029.00 1560.00,1003.00 1560.00,1003.00
             1560.00,1003.00 1518.00,1002.00 1518.00,1002.00
             1518.00,1002.00 1442.00,1002.00 1442.00,1002.00
             1442.00,1002.00 1442.00,433.00 1442.00,433.00
             1442.00,433.00 1342.00,433.00 1342.00,433.00 Z" />
</svg>
