<?xml version="1.0" encoding="UTF-8" standalone="no"?>
<!DOCTYPE svg PUBLIC "-//W3C//DTD SVG 20010904//EN"
              "http://www.w3.org/TR/2001/REC-SVG-20010904/DTD/svg10.dtd">

<svg xmlns="http://www.w3.org/2000/svg"
     width="1.03667in" height="0.786667in"
     viewBox="0 0 311 236">
  <path id="パス"
        fill="none" stroke="black" stroke-width="1"
        d="M 88.77,51.00
           C 88.77,51.00 88.77,77.00 88.77,77.00
             88.77,77.00 48.95,77.00 48.95,77.00
             42.05,77.00 38.61,80.53 38.61,87.59
             38.61,90.80 43.38,95.80 52.94,102.59
             67.00,112.47 75.89,119.14 79.61,122.59
             89.16,131.53 93.94,140.20 93.94,148.59
             93.94,160.20 91.22,169.73 85.78,177.20
             78.88,186.40 68.47,191.00 54.53,191.00
             54.53,191.00 7.97,191.00 7.97,191.00
             7.97,191.00 7.97,163.00 7.97,163.00
             7.97,163.00 53.73,163.00 53.73,163.00
             56.39,163.00 58.58,162.07 60.30,160.20
             62.02,158.34 62.89,155.94 62.89,153.00
             62.89,149.27 58.11,144.07 48.56,137.41
             34.62,127.80 25.73,121.14 21.89,117.41
             12.34,108.07 7.56,98.34 7.56,88.20
             7.56,76.20 11.34,66.73 18.91,59.80
             25.54,53.93 33.30,51.00 42.19,51.00
             42.19,51.00 88.77,51.00 88.77,51.00 Z
           M 195.72,51.00
           C 195.72,51.00 195.72,79.00 195.72,79.00
             195.72,79.00 174.23,79.00 174.23,79.00
             164.41,79.00 155.91,83.43 148.75,92.30
             141.59,101.16 138.02,110.73 138.02,121.00
             138.02,131.27 141.53,140.74 148.56,149.41
             155.85,158.47 164.41,163.00 174.23,163.00
             174.23,163.00 195.72,163.00 195.72,163.00
             195.72,163.00 195.72,191.00 195.72,191.00
             195.72,191.00 172.64,191.00 172.64,191.00
             155.13,191.00 140.00,184.60 127.27,171.80
             113.73,158.33 106.97,141.40 106.97,121.00
             106.97,100.61 113.73,83.61 127.27,70.00
             140.00,57.34 155.13,51.00 172.64,51.00
             172.64,51.00 195.72,51.00 195.72,51.00 Z
           M 240.20,191.00
           C 240.20,191.00 210.75,191.00 210.75,191.00
             210.75,191.00 210.75,96.67 210.75,96.67
             210.75,83.37 215.16,72.10 223.98,62.86
             232.80,53.62 244.52,49.00 259.11,49.00
             273.30,49.00 284.91,53.53 293.94,62.58
             302.96,71.62 307.47,82.76 307.47,96.00
             307.47,109.24 303.16,120.32 294.53,129.23
             285.51,138.41 273.70,143.00 259.11,143.00
             259.11,143.00 248.36,143.00 248.36,143.00
             248.36,143.00 248.36,115.00 248.36,115.00
             258.05,115.00 265.08,113.98 269.45,111.92
             275.16,109.11 278.02,103.87 278.02,96.19
             278.02,90.18 276.32,85.48 272.94,82.09
             269.55,78.70 264.94,77.00 259.11,77.00
             253.27,77.00 248.66,78.76 245.28,82.28
             241.89,85.80 240.20,90.69 240.20,96.94
             240.20,96.94 240.20,191.00 240.20,191.00 Z" />
</svg>
