<?xml version="1.0" encoding="UTF-8" standalone="no"?>
<!DOCTYPE svg PUBLIC "-//W3C//DTD SVG 20010904//EN"
              "http://www.w3.org/TR/2001/REC-SVG-20010904/DTD/svg10.dtd">

<svg xmlns="http://www.w3.org/2000/svg"
     width="33.3333in" height="33.3333in"
     viewBox="0 0 3000 3000">
  <path id="インポートされたパス"
        fill="none" stroke="black" stroke-width="1"
        d="M 1455.00,624.25
           C 1455.00,624.25 1455.00,688.62 1455.00,688.62
             1455.00,688.62 1449.75,689.25 1449.75,689.25
             1446.75,689.50 1432.63,691.00 1418.25,692.50
             1291.50,705.12 1162.88,751.75 1053.62,824.50
             966.25,882.62 887.62,961.25 829.50,1048.62
             790.25,1107.50 755.62,1178.37 733.88,1244.50
             673.38,1427.75 679.50,1624.50 751.25,1803.25
             756.25,1815.62 765.00,1835.38 770.75,1847.38
             776.50,1859.38 781.25,1869.50 781.25,1870.00
             781.25,1870.50 753.75,1886.75 720.00,1906.25
             686.38,1925.62 658.00,1942.12 656.88,1943.00
             655.25,1944.12 658.38,1950.25 679.62,1987.12
             693.25,2010.75 704.75,2030.00 705.12,2030.00
             705.62,2030.00 734.25,2013.75 768.75,1993.75
             803.25,1973.75 831.88,1957.50 832.50,1957.50
             833.00,1957.50 838.63,1964.75 844.88,1973.62
             899.88,2050.88 973.63,2122.25 1053.62,2175.50
             1112.50,2214.75 1183.38,2249.38 1249.50,2271.12
             1416.38,2326.25 1593.62,2326.25 1760.50,2271.12
             1826.63,2249.38 1897.50,2214.75 1956.38,2175.50
             2037.38,2121.62 2109.62,2051.50 2166.75,1971.25
             2174.12,1960.87 2180.38,1952.50 2180.75,1952.50
             2181.00,1952.50 2209.00,1968.50 2242.88,1988.00
             2276.62,2007.62 2305.25,2024.00 2306.38,2024.38
             2307.88,2025.00 2313.75,2015.75 2333.00,1982.38
             2355.25,1944.00 2357.50,1939.38 2355.62,1938.00
             2354.50,1937.12 2326.00,1920.62 2292.38,1901.25
             2258.75,1881.75 2231.25,1865.50 2231.25,1865.00
             2231.25,1864.50 2235.38,1855.50 2240.50,1844.88
             2309.75,1700.38 2333.62,1526.38 2306.12,1365.00
             2287.00,1252.37 2243.88,1143.62 2180.50,1048.62
             2130.38,973.25 2065.88,905.25 1992.50,850.12
             1951.75,819.62 1915.25,797.12 1867.50,773.25
             1779.13,729.12 1686.12,701.88 1591.75,692.50
             1577.38,691.00 1563.25,689.50 1560.38,689.25
             1560.38,689.25 1555.00,688.62 1555.00,688.62
             1555.00,688.62 1555.00,624.25 1555.00,624.25
             1555.00,624.25 1555.00,560.00 1555.00,560.00
             1555.00,560.00 1505.00,560.00 1505.00,560.00
             1505.00,560.00 1455.00,560.00 1455.00,560.00
             1455.00,560.00 1455.00,624.25 1455.00,624.25 Z
           M 1455.00,983.75
           C 1455.00,983.75 1455.00,1128.75 1455.00,1128.75
             1455.00,1128.75 1398.00,1128.75 1398.00,1128.75
             1364.88,1128.75 1341.25,1129.25 1341.50,1129.87
             1342.75,1133.50 1507.00,1451.25 1507.50,1451.25
             1508.00,1451.25 1672.12,1133.50 1673.50,1129.87
             1673.75,1129.25 1648.88,1128.75 1614.50,1128.75
             1614.50,1128.75 1555.00,1128.75 1555.00,1128.75
             1555.00,1128.75 1555.00,983.75 1555.00,983.75
             1555.00,983.75 1555.00,838.75 1555.00,838.75
             1555.00,838.75 1560.62,838.75 1560.62,838.75
             1578.25,838.75 1630.88,847.50 1666.38,856.37
             1714.13,868.25 1751.88,882.25 1798.12,905.00
             1848.62,929.87 1889.25,956.25 1933.12,992.62
             1952.25,1008.37 2001.38,1058.37 2017.88,1078.62
             2042.25,1108.75 2064.88,1141.75 2083.50,1174.50
             2093.50,1192.12 2114.00,1234.87 2121.75,1254.62
             2179.25,1399.87 2184.00,1561.25 2135.00,1708.50
             2123.88,1742.00 2103.88,1790.00 2101.00,1790.00
             2099.50,1790.00 1870.00,1657.75 1867.63,1655.50
             1866.12,1654.25 1870.25,1646.25 1893.50,1606.00
             1908.75,1579.62 1921.25,1557.62 1921.25,1556.88
             1921.25,1555.62 1922.12,1555.62 1892.50,1554.38
             1880.50,1553.88 1869.75,1553.38 1868.75,1553.12
             1867.75,1553.00 1856.50,1552.37 1843.75,1552.00
             1831.00,1551.50 1817.88,1550.88 1814.38,1550.62
             1811.00,1550.38 1799.75,1549.75 1789.38,1549.38
             1779.13,1549.00 1768.12,1548.38 1765.00,1548.12
             1761.88,1547.88 1749.50,1547.25 1737.50,1546.75
             1725.50,1546.38 1713.75,1545.88 1711.50,1545.62
             1709.25,1545.50 1697.75,1544.87 1685.88,1544.38
             1674.13,1543.88 1662.38,1543.38 1660.00,1543.12
             1657.63,1542.88 1645.00,1542.37 1631.88,1541.88
             1618.88,1541.38 1607.25,1540.88 1606.25,1540.62
             1601.50,1539.75 1560.00,1538.50 1560.00,1539.25
             1560.00,1539.75 1595.50,1595.38 1639.00,1662.88
             1682.38,1730.38 1726.38,1798.75 1736.75,1814.75
             1753.62,1841.00 1755.62,1843.75 1757.12,1841.75
             1758.00,1840.50 1771.50,1817.38 1787.12,1790.38
             1787.12,1790.38 1815.50,1741.25 1815.50,1741.25
             1815.50,1741.25 1819.25,1743.50 1819.25,1743.50
             1821.38,1744.75 1874.13,1775.25 1936.63,1811.25
             1999.00,1847.25 2050.00,1877.25 2050.00,1877.88
             2050.00,1879.75 2031.50,1904.62 2016.38,1923.12
             2001.00,1942.00 1951.25,1992.38 1933.12,2007.38
             1905.62,2030.25 1875.25,2051.75 1845.00,2070.00
             1823.88,2082.88 1773.75,2107.50 1750.38,2116.75
             1592.12,2179.25 1417.88,2179.25 1259.62,2116.75
             1236.25,2107.50 1186.12,2082.88 1165.00,2070.00
             1134.75,2051.75 1104.12,2030.12 1076.88,2007.38
             1059.12,1992.62 1011.50,1944.75 996.25,1926.25
             982.00,1909.12 962.00,1882.62 962.62,1881.88
             962.88,1881.62 1014.00,1852.12 1076.25,1816.25
             1138.50,1780.38 1191.12,1749.88 1193.38,1748.62
             1193.38,1748.62 1197.25,1746.25 1197.25,1746.25
             1197.25,1746.25 1224.50,1793.37 1224.50,1793.37
             1239.50,1819.38 1252.38,1841.62 1253.25,1842.88
             1254.50,1844.88 1255.62,1843.62 1262.38,1832.88
             1266.62,1826.12 1277.75,1808.75 1287.12,1794.38
             1296.38,1779.88 1310.38,1758.25 1318.12,1746.25
             1331.38,1725.50 1374.38,1658.62 1385.62,1641.25
             1388.50,1636.75 1401.12,1617.12 1413.75,1597.50
             1426.38,1577.88 1439.62,1557.25 1443.25,1551.62
             1447.00,1545.88 1450.00,1540.62 1450.00,1539.87
             1450.00,1539.00 1447.00,1538.75 1440.38,1539.25
             1435.00,1539.62 1423.00,1540.25 1413.75,1540.62
             1404.50,1541.00 1392.63,1541.50 1387.50,1541.88
             1377.38,1542.50 1359.88,1543.38 1335.00,1544.38
             1326.38,1544.75 1315.13,1545.25 1310.00,1545.62
             1304.88,1546.00 1293.62,1546.50 1285.00,1546.88
             1269.12,1547.50 1254.75,1548.25 1232.88,1549.38
             1226.12,1549.75 1208.25,1550.62 1193.12,1551.25
             1178.00,1551.88 1160.12,1552.75 1153.50,1553.12
             1146.75,1553.50 1135.75,1554.00 1129.12,1554.38
             1098.75,1555.88 1088.75,1556.62 1088.75,1557.37
             1088.75,1557.75 1101.88,1581.00 1118.00,1608.75
             1118.00,1608.75 1147.25,1659.38 1147.25,1659.38
             1147.25,1659.38 1143.88,1661.38 1143.88,1661.38
             1133.00,1668.25 912.50,1795.00 911.50,1795.00
             910.00,1795.00 898.38,1770.25 889.38,1748.00
             853.00,1658.25 836.38,1555.62 842.50,1459.38
             849.62,1348.37 883.50,1242.88 942.25,1148.12
             955.12,1127.37 974.75,1100.12 992.12,1078.62
             1008.63,1058.37 1057.75,1008.37 1076.88,992.62
             1120.75,956.25 1161.38,929.87 1211.88,905.00
             1258.12,882.25 1295.88,868.25 1343.62,856.37
             1379.62,847.37 1428.50,839.12 1447.88,838.87
             1447.88,838.87 1455.00,838.75 1455.00,838.75
             1455.00,838.75 1455.00,983.75 1455.00,983.75 Z" />
</svg>
