<?xml version="1.0" encoding="UTF-8" standalone="no"?>
<!DOCTYPE svg PUBLIC "-//W3C//DTD SVG 20010904//EN"
              "http://www.w3.org/TR/2001/REC-SVG-20010904/DTD/svg10.dtd">

<svg xmlns="http://www.w3.org/2000/svg"
     width="11.1111in" height="11.1111in"
     viewBox="0 0 1000 1000">
  <path id="インポートされたパス #1"
        fill="none" stroke="black" stroke-width="1"
        d="M 367.33,43.62
           C 367.21,44.29 364.29,61.00 360.83,80.83
             357.42,100.67 354.46,117.12 354.29,117.42
             354.08,117.71 351.25,119.04 347.92,120.38
             283.38,146.42 225.25,189.75 181.83,244.17
             136.83,300.58 107.37,367.83 96.87,437.92
             96.29,441.92 95.58,445.67 95.38,446.21
             94.54,448.25 92.88,464.25 92.08,478.08
             91.54,487.67 91.54,511.75 92.08,521.88
             92.58,530.96 93.38,539.46 94.67,550.33
             94.67,550.33 95.58,558.00 95.58,558.00
             95.58,558.00 93.92,559.54 93.92,559.54
             90.46,562.79 85.83,567.04 81.25,571.25
             78.62,573.67 75.17,576.83 73.54,578.33
             70.04,581.62 69.42,582.17 51.79,598.50
             44.17,605.50 37.88,611.42 37.75,611.62
             37.62,611.79 42.83,621.12 49.29,632.33
             55.75,643.54 86.00,695.87 116.46,748.62
             146.92,801.42 172.04,844.58 172.29,844.58
             172.54,844.58 175.83,843.46 179.62,842.04
             183.38,840.67 191.54,837.67 197.71,835.42
             234.37,822.00 243.38,818.75 243.71,818.75
             243.96,818.75 245.21,819.67 246.58,820.79
             254.21,827.17 272.92,840.33 285.21,848.00
             306.04,861.00 333.17,874.25 358.54,883.75
             419.12,906.46 486.17,914.46 550.42,906.67
             584.71,902.50 619.33,893.83 650.21,881.67
             654.33,880.04 658.08,878.67 658.54,878.58
             660.79,878.21 674.12,872.12 687.29,865.50
             708.67,854.67 727.38,843.08 747.00,828.46
             747.00,828.46 755.04,822.50 755.04,822.50
             755.04,822.50 757.21,823.17 757.21,823.17
             758.42,823.54 759.96,824.00 760.62,824.25
             762.58,824.88 781.58,830.79 784.37,831.62
             789.21,833.08 811.46,840.04 812.50,840.42
             813.08,840.62 815.50,841.37 817.92,842.08
             820.33,842.83 824.04,843.96 826.17,844.67
             828.29,845.33 830.21,845.83 830.42,845.75
             830.92,845.58 965.08,613.29 964.92,612.92
             964.79,612.62 956.79,605.87 923.33,578.00
             914.96,571.00 907.79,564.96 907.33,564.58
             906.58,563.83 906.58,563.71 907.42,557.62
             912.04,525.04 912.58,492.79 909.12,458.75
             901.12,380.04 870.96,306.21 821.42,244.08
             789.67,204.25 749.54,169.92 705.00,144.46
             691.04,136.50 671.62,126.96 657.62,121.25
             655.71,120.50 654.08,119.54 654.00,119.21
             653.88,118.83 650.00,101.75 645.42,81.25
             640.79,60.75 636.92,43.62 636.83,43.21
             636.62,42.54 629.83,42.50 502.08,42.50
             502.08,42.50 367.58,42.50 367.58,42.50
             367.58,42.50 367.33,43.62 367.33,43.62 Z
           M 614.33,64.87
           C 614.67,66.00 624.12,106.50 627.50,121.25
             629.12,128.46 630.62,134.92 630.79,135.62
             631.08,136.79 631.54,137.04 639.00,139.92
             655.42,146.25 675.00,155.33 688.54,162.92
             732.71,187.58 770.75,219.67 801.87,258.33
             850.38,318.62 879.50,391.75 885.79,468.96
             887.17,485.67 887.42,515.29 886.25,529.17
             885.17,542.50 883.12,558.12 880.75,571.37
             880.75,571.37 880.25,574.17 880.25,574.17
             880.25,574.17 882.08,575.96 882.08,575.96
             883.12,576.92 885.67,579.12 887.71,580.83
             889.79,582.54 891.67,584.17 891.96,584.42
             892.21,584.67 894.33,586.46 896.71,588.37
             899.04,590.29 902.75,593.37 904.96,595.21
             907.17,597.08 914.29,603.04 920.83,608.50
             936.75,621.83 935.62,620.79 935.12,621.62
             934.92,622.00 909.62,665.75 879.00,718.83
             845.50,776.87 823.00,815.42 822.67,815.42
             822.33,815.42 819.00,814.50 815.29,813.37
             811.58,812.25 807.88,811.12 807.08,810.92
             805.33,810.46 788.38,805.33 784.79,804.21
             783.42,803.75 780.62,802.92 778.54,802.29
             776.50,801.67 774.42,801.00 773.96,800.83
             773.50,800.62 772.29,800.25 771.25,800.00
             770.21,799.75 769.00,799.37 768.54,799.17
             768.08,798.96 766.42,798.42 764.79,798.00
             763.21,797.54 759.58,796.46 756.79,795.62
             751.75,794.08 751.71,794.08 750.67,794.83
             750.12,795.29 746.96,797.79 743.67,800.46
             733.58,808.62 714.96,822.08 713.79,822.08
             713.58,822.08 711.71,823.17 709.71,824.46
             690.25,837.00 666.00,849.42 643.79,858.21
             606.21,873.08 568.92,881.50 526.46,884.67
             517.17,885.33 486.17,885.33 476.87,884.67
             422.58,880.62 374.83,867.58 328.33,844.12
             304.25,832.00 279.08,815.83 260.21,800.42
             258.62,799.08 257.08,797.96 256.79,797.88
             256.54,797.79 254.50,796.12 252.29,794.21
             252.29,794.21 248.25,790.75 248.25,790.75
             248.25,790.75 246.29,791.17 246.29,791.17
             244.42,791.58 241.71,792.50 228.33,797.50
             224.54,798.92 215.37,802.29 207.92,805.00
             200.46,807.71 191.29,811.08 187.50,812.46
             183.75,813.87 180.46,815.00 180.21,815.00
             179.96,815.00 154.50,771.21 123.58,717.67
             123.58,717.67 67.38,620.33 67.38,620.33
             67.38,620.33 68.79,619.08 68.79,619.08
             69.58,618.37 73.29,614.87 77.08,611.29
             80.88,607.75 85.17,603.67 86.67,602.29
             88.17,600.87 91.17,598.04 93.33,595.96
             95.50,593.87 98.29,591.29 99.54,590.17
             100.79,589.04 102.50,587.46 103.38,586.67
             106.21,584.00 114.25,576.46 115.38,575.46
             115.96,574.92 117.71,573.29 119.21,571.83
             119.21,571.83 122.00,569.17 122.00,569.17
             122.00,569.17 121.42,566.17 121.42,566.17
             119.33,555.33 117.04,535.58 116.87,527.50
             116.83,524.17 116.62,515.17 116.46,507.50
             115.96,485.29 117.29,464.21 120.62,442.29
             136.88,335.17 197.33,239.92 287.29,179.79
             313.58,162.17 343.08,147.29 371.46,137.29
             376.25,135.58 376.46,135.46 376.79,134.13
             377.21,132.46 379.92,117.25 385.04,87.71
             387.12,75.79 388.92,65.62 389.04,65.08
             389.04,65.08 389.25,64.17 389.25,64.17
             389.25,64.17 501.67,64.17 501.67,64.17
             608.42,64.17 614.12,64.21 614.33,64.87 Z" />
</svg>
