<?xml version="1.0" encoding="UTF-8" standalone="no"?>
<!DOCTYPE svg PUBLIC "-//W3C//DTD SVG 20010904//EN"
              "http://www.w3.org/TR/2001/REC-SVG-20010904/DTD/svg10.dtd">

<svg xmlns="http://www.w3.org/2000/svg"
     width="33.3333in" height="33.3333in"
     viewBox="0 0 3000 3000">
  <path id="インポートされたパス #1"
        fill="none" stroke="black" stroke-width="1"
        d="M 1102.00,130.87
           C 1101.62,132.87 1092.88,183.00 1082.50,242.50
             1072.25,302.00 1063.38,351.37 1062.88,352.25
             1062.25,353.12 1053.75,357.12 1043.75,361.13
             850.12,439.25 675.75,569.25 545.50,732.50
             410.50,901.75 322.12,1103.50 290.62,1313.75
             288.88,1325.75 286.75,1337.00 286.12,1338.62
             283.62,1344.75 278.62,1392.75 276.25,1434.25
             274.62,1463.00 274.62,1535.25 276.25,1565.62
             277.75,1592.88 280.12,1618.38 284.00,1651.00
             284.00,1651.00 286.75,1674.00 286.75,1674.00
             286.75,1674.00 281.75,1678.62 281.75,1678.62
             271.38,1688.38 257.50,1701.12 243.75,1713.75
             235.88,1721.00 225.50,1730.50 220.62,1735.00
             210.13,1744.88 208.25,1746.50 155.38,1795.50
             132.50,1816.50 113.62,1834.25 113.25,1834.88
             112.88,1835.38 128.50,1863.37 147.88,1897.00
             167.25,1930.62 258.00,2087.62 349.38,2245.88
             440.75,2404.25 516.12,2533.75 516.88,2533.75
             517.62,2533.75 527.50,2530.38 538.88,2526.12
             550.12,2522.00 574.62,2513.00 593.12,2506.25
             703.12,2466.00 730.12,2456.25 731.12,2456.25
             731.88,2456.25 735.62,2459.00 739.75,2462.38
             762.62,2481.50 818.75,2521.00 855.62,2544.00
             918.12,2583.00 999.50,2622.75 1075.62,2651.25
             1257.38,2719.38 1458.50,2743.38 1651.25,2720.00
             1754.13,2707.50 1858.00,2681.50 1950.62,2645.00
             1963.00,2640.12 1974.25,2636.00 1975.62,2635.75
             1982.38,2634.62 2022.38,2616.38 2061.88,2596.50
             2126.00,2564.00 2182.12,2529.25 2241.00,2485.38
             2241.00,2485.38 2265.12,2467.50 2265.12,2467.50
             2265.12,2467.50 2271.62,2469.50 2271.62,2469.50
             2275.25,2470.62 2279.88,2472.00 2281.88,2472.75
             2287.75,2474.62 2344.75,2492.38 2353.12,2494.88
             2367.62,2499.25 2434.38,2520.12 2437.50,2521.25
             2439.25,2521.88 2446.50,2524.12 2453.75,2526.25
             2461.00,2528.50 2472.12,2531.88 2478.50,2534.00
             2484.88,2536.00 2490.62,2537.50 2491.25,2537.25
             2492.75,2536.75 2895.25,1839.88 2894.75,1838.75
             2894.38,1837.88 2870.38,1817.62 2770.00,1734.00
             2744.88,1713.00 2723.38,1694.87 2722.00,1693.75
             2719.75,1691.50 2719.75,1691.12 2722.25,1672.88
             2736.12,1575.12 2737.75,1478.38 2727.38,1376.25
             2703.38,1140.12 2612.88,918.62 2464.25,732.25
             2369.00,612.75 2248.62,509.75 2115.00,433.37
             2073.12,409.50 2014.88,380.87 1972.88,363.75
             1967.12,361.50 1962.25,358.63 1962.00,357.62
             1961.63,356.50 1950.00,305.25 1936.25,243.75
             1922.38,182.25 1910.75,130.87 1910.50,129.62
             1909.88,127.62 1889.50,127.50 1506.25,127.50
             1506.25,127.50 1102.75,127.50 1102.75,127.50
             1102.75,127.50 1102.00,130.87 1102.00,130.87 Z
           M 1843.00,194.62
           C 1844.00,198.00 1872.38,319.50 1882.50,363.75
             1887.38,385.37 1891.88,404.75 1892.38,406.88
             1893.25,410.37 1894.62,411.13 1917.00,419.75
             1966.25,438.75 2025.00,466.00 2065.62,488.75
             2198.12,562.75 2312.25,659.00 2405.62,775.00
             2551.12,955.87 2638.50,1175.25 2657.38,1406.88
             2661.50,1457.00 2662.25,1545.88 2658.75,1587.50
             2655.50,1627.50 2649.38,1674.38 2642.25,1714.12
             2642.25,1714.12 2640.75,1722.50 2640.75,1722.50
             2640.75,1722.50 2646.25,1727.88 2646.25,1727.88
             2649.38,1730.75 2657.00,1737.38 2663.12,1742.50
             2669.38,1747.62 2675.00,1752.50 2675.88,1753.25
             2676.62,1754.00 2683.00,1759.38 2690.12,1765.12
             2697.13,1770.87 2708.25,1780.12 2714.88,1785.62
             2721.50,1791.25 2742.88,1809.12 2762.50,1825.50
             2810.25,1865.50 2806.88,1862.38 2805.38,1864.88
             2804.75,1866.00 2728.88,1997.25 2637.00,2156.50
             2536.50,2330.62 2469.00,2446.25 2468.00,2446.25
             2467.00,2446.25 2457.00,2443.50 2445.88,2440.12
             2434.75,2436.75 2423.62,2433.38 2421.25,2432.75
             2416.00,2431.38 2365.12,2416.00 2354.38,2412.62
             2350.25,2411.25 2341.88,2408.75 2335.62,2406.88
             2329.50,2405.00 2323.25,2403.00 2321.88,2402.50
             2320.50,2401.88 2316.88,2400.75 2313.75,2400.00
             2310.62,2399.25 2307.00,2398.12 2305.62,2397.50
             2304.25,2396.88 2299.25,2395.25 2294.38,2394.00
             2289.62,2392.62 2278.75,2389.38 2270.38,2386.88
             2255.25,2382.25 2255.12,2382.25 2252.00,2384.50
             2250.38,2385.88 2240.88,2393.38 2231.00,2401.38
             2200.75,2425.88 2144.88,2466.25 2141.38,2466.25
             2140.75,2466.25 2135.12,2469.50 2129.12,2473.38
             2070.75,2511.00 1998.00,2548.25 1931.38,2574.62
             1818.62,2619.25 1706.75,2644.50 1579.38,2654.00
             1551.50,2656.00 1458.50,2656.00 1430.62,2654.00
             1267.75,2641.88 1124.50,2602.75 985.00,2532.38
             912.75,2496.00 837.25,2447.50 780.62,2401.25
             775.88,2397.25 771.25,2393.88 770.38,2393.62
             769.62,2393.38 763.50,2388.38 756.88,2382.62
             756.88,2382.62 744.75,2372.25 744.75,2372.25
             744.75,2372.25 738.88,2373.50 738.88,2373.50
             733.25,2374.75 725.12,2377.50 685.00,2392.50
             673.62,2396.75 646.12,2406.88 623.75,2415.00
             601.38,2423.12 573.88,2433.25 562.50,2437.38
             551.25,2441.62 541.38,2445.00 540.62,2445.00
             539.88,2445.00 463.50,2313.62 370.75,2153.00
             370.75,2153.00 202.13,1861.00 202.13,1861.00
             202.13,1861.00 206.38,1857.25 206.38,1857.25
             208.75,1855.12 219.88,1844.62 231.25,1833.88
             242.63,1823.25 255.50,1811.00 260.00,1806.88
             264.50,1802.62 273.50,1794.12 280.00,1787.88
             286.50,1781.62 294.88,1773.88 298.62,1770.50
             302.38,1767.12 307.50,1762.38 310.12,1760.00
             318.62,1752.00 342.75,1729.38 346.13,1726.38
             347.88,1724.75 353.12,1719.87 357.62,1715.50
             357.62,1715.50 366.00,1707.50 366.00,1707.50
             366.00,1707.50 364.25,1698.50 364.25,1698.50
             358.00,1666.00 351.13,1606.75 350.62,1582.50
             350.50,1572.50 349.88,1545.50 349.38,1522.50
             347.88,1455.87 351.88,1392.62 361.88,1326.88
             410.62,1005.50 592.00,719.75 861.88,539.38
             940.75,486.50 1029.25,441.88 1114.38,411.88
             1128.75,406.75 1129.38,406.37 1130.38,402.38
             1131.62,397.38 1139.75,351.75 1155.12,263.12
             1161.38,227.38 1166.75,196.88 1167.12,195.25
             1167.12,195.25 1167.75,192.50 1167.75,192.50
             1167.75,192.50 1505.00,192.50 1505.00,192.50
             1825.25,192.50 1842.38,192.62 1843.00,194.62 Z" />
</svg>
