<?xml version="1.0" encoding="UTF-8" standalone="no"?>
<!DOCTYPE svg PUBLIC "-//W3C//DTD SVG 20010904//EN"
              "http://www.w3.org/TR/2001/REC-SVG-20010904/DTD/svg10.dtd">

<svg xmlns="http://www.w3.org/2000/svg"
     width="2.05333in" height="0.24in"
     viewBox="0 0 616 72">
  <path id="パス #1"
        fill="none" stroke="black" stroke-width="1"
        d="M 26.45,16.00
           C 26.45,16.00 26.45,24.00 26.45,24.00
             26.45,24.00 14.47,24.00 14.47,24.00
             12.38,24.00 11.34,25.05 11.34,27.16
             11.34,28.12 12.78,29.61 15.66,31.64
             19.89,34.58 22.58,36.56 23.70,37.59
             26.58,40.26 28.02,42.85 28.02,45.36
             28.02,48.82 27.20,51.66 25.56,53.89
             23.48,56.63 20.34,58.00 16.14,58.00
             16.14,58.00 2.09,58.00 2.09,58.00
             2.09,58.00 2.09,50.00 2.09,50.00
             2.09,50.00 15.89,50.00 15.89,50.00
             16.69,50.00 17.35,49.72 17.88,49.16
             18.39,48.59 18.66,47.86 18.66,46.97
             18.66,45.84 17.22,44.26 14.34,42.23
             10.14,39.32 7.46,37.29 6.30,36.16
             3.42,33.32 1.98,30.37 1.98,27.30
             1.98,23.65 3.12,20.78 5.41,18.67
             7.41,16.89 9.74,16.00 12.42,16.00
             12.42,16.00 26.45,16.00 26.45,16.00 Z
           M 54.19,44.80
           C 54.19,44.80 61.92,45.59 61.92,45.59
             61.20,49.36 59.42,52.37 56.58,54.62
             53.74,56.88 50.29,58.00 46.20,58.00
             41.80,58.00 38.19,56.53 35.39,53.59
             32.75,50.73 31.44,47.20 31.44,43.00
             31.44,38.80 32.75,35.27 35.39,32.41
             38.19,29.47 41.80,28.00 46.20,28.00
             49.84,28.00 52.94,28.89 55.50,30.66
             57.66,32.19 59.27,34.20 60.36,36.69
             60.36,36.69 45.53,47.86 45.53,47.86
             45.53,47.86 41.81,43.08 41.81,43.08
             41.81,43.08 49.44,37.30 49.44,37.30
             48.68,36.43 47.41,36.00 45.66,36.00
             43.78,36.00 42.22,36.68 40.98,38.05
             39.74,39.40 39.12,41.05 39.12,43.00
             39.12,44.76 39.79,46.34 41.11,47.73
             42.55,49.25 44.34,50.00 46.50,50.00
             48.46,50.00 50.14,49.54 51.56,48.61
             52.99,47.67 53.86,46.40 54.19,44.80 Z
           M 84.55,28.00
           C 84.55,28.00 84.55,36.00 84.55,36.00
             84.55,36.00 79.45,36.00 79.45,36.00
             77.33,36.00 75.63,36.65 74.38,37.95
             73.11,39.25 72.48,40.93 72.48,43.00
             72.48,45.07 73.11,46.76 74.38,48.06
             75.63,49.36 77.33,50.00 79.45,50.00
             79.45,50.00 84.55,50.00 84.55,50.00
             84.55,50.00 84.55,58.00 84.55,58.00
             84.55,58.00 79.20,58.00 79.20,58.00
             74.72,58.00 71.20,56.65 68.64,53.95
             66.08,51.26 64.80,47.61 64.80,43.00
             64.80,38.40 66.08,34.75 68.64,32.05
             71.20,29.35 74.72,28.00 79.20,28.00
             79.20,28.00 84.55,28.00 84.55,28.00 Z
           M 88.94,28.00
           C 88.94,28.00 96.62,28.00 96.62,28.00
             96.62,28.00 96.62,45.36 96.62,45.36
             96.62,48.45 98.08,50.00 101.00,50.00
             103.91,50.00 105.38,48.45 105.38,45.36
             105.38,45.36 105.38,28.00 105.38,28.00
             105.38,28.00 113.06,28.00 113.06,28.00
             113.06,28.00 113.06,48.23 113.06,48.23
             113.06,51.37 111.97,53.78 109.78,55.47
             107.60,57.16 104.68,58.00 101.00,58.00
             97.32,58.00 94.42,57.18 92.30,55.53
             90.05,53.80 88.94,51.37 88.94,48.23
             88.94,48.23 88.94,28.00 88.94,28.00 Z
           M 126.92,58.00
           C 126.92,58.00 118.77,58.00 118.77,58.00
             118.77,58.00 118.77,28.00 118.77,28.00
             118.77,28.00 126.02,28.00 126.02,28.00
             126.02,28.00 126.02,34.00 126.02,34.00
             126.02,34.00 126.14,34.00 126.14,34.00
             127.50,30.00 129.96,28.00 133.52,28.00
             133.52,28.00 135.14,28.00 135.14,28.00
             135.14,28.00 135.14,36.00 135.14,36.00
             135.14,36.00 133.28,36.00 133.28,36.00
             131.36,36.00 129.82,36.65 128.66,37.95
             127.50,39.25 126.92,41.03 126.92,43.30
             126.92,43.30 126.92,58.00 126.92,58.00 Z
           M 160.19,44.80
           C 160.19,44.80 167.92,45.59 167.92,45.59
             167.20,49.36 165.42,52.37 162.58,54.62
             159.74,56.88 156.29,58.00 152.20,58.00
             147.80,58.00 144.19,56.53 141.39,53.59
             138.75,50.73 137.44,47.20 137.44,43.00
             137.44,38.80 138.75,35.27 141.39,32.41
             144.19,29.47 147.80,28.00 152.20,28.00
             155.84,28.00 158.94,28.89 161.50,30.66
             163.66,32.19 165.27,34.20 166.36,36.69
             166.36,36.69 151.53,47.86 151.53,47.86
             151.53,47.86 147.81,43.08 147.81,43.08
             147.81,43.08 155.44,37.30 155.44,37.30
             154.68,36.43 153.41,36.00 151.66,36.00
             149.78,36.00 148.22,36.68 146.98,38.05
             145.74,39.40 145.12,41.05 145.12,43.00
             145.12,44.76 145.79,46.34 147.11,47.73
             148.55,49.25 150.34,50.00 152.50,50.00
             154.46,50.00 156.14,49.54 157.56,48.61
             158.99,47.67 159.86,46.40 160.19,44.80 Z
           M 177.34,48.00
           C 178.78,48.00 179.97,48.48 180.91,49.45
             181.84,50.41 182.31,51.59 182.31,53.00
             182.31,54.41 181.84,55.59 180.91,56.56
             179.97,57.52 178.78,58.00 177.34,58.00
             175.89,58.00 174.70,57.52 173.77,56.56
             172.83,55.59 172.36,54.41 172.36,53.00
             172.36,51.59 172.83,50.41 173.77,49.45
             174.70,48.48 175.89,48.00 177.34,48.00 Z
           M 231.56,16.00
           C 231.56,16.00 231.56,24.00 231.56,24.00
             231.56,24.00 225.08,24.00 225.08,24.00
             222.12,24.00 219.55,25.38 217.39,28.12
             215.23,30.87 214.16,33.82 214.16,37.00
             214.16,40.18 215.22,43.11 217.34,45.80
             219.54,48.60 222.12,50.00 225.08,50.00
             225.08,50.00 231.56,50.00 231.56,50.00
             231.56,50.00 231.56,58.00 231.56,58.00
             231.56,58.00 224.59,58.00 224.59,58.00
             219.31,58.00 214.75,56.08 210.92,52.23
             206.84,48.20 204.80,43.12 204.80,37.00
             204.80,30.88 206.84,25.78 210.92,21.70
             214.75,17.90 219.31,16.00 224.59,16.00
             224.59,16.00 231.56,16.00 231.56,16.00 Z
           M 249.67,36.00
           C 247.52,36.00 245.80,36.62 244.52,37.84
             243.23,39.07 242.59,40.79 242.59,43.00
             242.59,45.21 243.23,46.93 244.52,48.16
             245.80,49.39 247.52,50.00 249.67,50.00
             251.84,50.00 253.56,49.39 254.84,48.16
             256.12,46.93 256.77,45.21 256.77,43.00
             256.77,40.79 256.12,39.07 254.84,37.84
             253.56,36.62 251.84,36.00 249.67,36.00 Z
           M 249.69,28.00
           C 254.08,28.00 257.68,29.47 260.48,32.41
             263.12,35.27 264.44,38.80 264.44,43.00
             264.44,47.20 263.12,50.73 260.48,53.59
             257.68,56.53 254.08,58.00 249.69,58.00
             245.28,58.00 241.68,56.53 238.88,53.59
             236.24,50.73 234.92,47.20 234.92,43.00
             234.92,38.80 236.24,35.27 238.88,32.41
             241.68,29.47 245.28,28.00 249.69,28.00 Z
           M 276.62,58.00
           C 276.62,58.00 268.94,58.00 268.94,58.00
             268.94,58.00 268.94,37.77 268.94,37.77
             268.94,34.63 270.05,32.20 272.30,30.47
             274.42,28.82 277.32,28.00 281.00,28.00
             284.68,28.00 287.60,28.84 289.78,30.53
             291.97,32.22 293.06,34.63 293.06,37.77
             293.06,37.77 293.06,58.00 293.06,58.00
             293.06,58.00 285.38,58.00 285.38,58.00
             285.38,58.00 285.38,40.64 285.38,40.64
             285.38,37.55 283.91,36.00 281.00,36.00
             278.08,36.00 276.62,37.55 276.62,40.64
             276.62,40.64 276.62,58.00 276.62,58.00 Z
           M 305.95,28.00
           C 305.95,28.00 311.55,28.00 311.55,28.00
             311.55,28.00 311.55,36.00 311.55,36.00
             311.55,36.00 305.95,36.00 305.95,36.00
             305.95,36.00 305.95,46.77 305.95,46.77
             305.95,48.92 306.83,50.00 308.59,50.00
             308.59,50.00 311.55,50.00 311.55,50.00
             311.55,50.00 311.55,58.00 311.55,58.00
             311.55,58.00 307.53,58.00 307.53,58.00
             301.36,58.00 298.28,54.44 298.28,47.31
             298.28,47.31 298.28,21.00 298.28,21.00
             298.28,21.00 305.95,21.00 305.95,21.00
             305.95,21.00 305.95,28.00 305.95,28.00 Z
           M 343.59,58.00
           C 343.59,58.00 335.92,58.00 335.92,58.00
             335.92,58.00 335.92,41.70 335.92,41.70
             335.92,39.96 335.30,38.58 334.06,37.55
             332.82,36.52 331.16,36.00 329.08,36.00
             327.23,36.00 325.69,36.71 324.45,38.12
             323.21,39.54 322.59,41.26 322.59,43.28
             322.59,45.16 323.23,46.75 324.52,48.05
             325.80,49.35 327.39,50.00 329.31,50.00
             330.63,50.00 332.10,49.85 333.70,49.55
             333.70,49.55 333.70,57.00 333.70,57.00
             331.70,57.67 330.08,58.00 328.84,58.00
             324.52,58.00 321.08,56.55 318.52,53.64
             316.12,50.93 314.92,47.56 314.92,43.53
             314.92,38.96 316.30,35.20 319.06,32.25
             321.74,29.42 325.12,28.00 329.20,28.00
             333.52,28.00 336.99,29.23 339.62,31.67
             342.27,34.12 343.59,37.27 343.59,41.12
             343.59,41.12 343.59,58.00 343.59,58.00 Z
           M 356.50,58.00
           C 356.50,58.00 348.81,58.00 348.81,58.00
             348.81,58.00 348.81,28.00 348.81,28.00
             348.81,28.00 356.50,28.00 356.50,28.00
             356.50,28.00 356.50,58.00 356.50,58.00 Z
           M 352.66,16.00
           C 353.98,16.00 355.07,16.45 355.92,17.33
             356.79,18.21 357.22,19.44 357.22,21.00
             357.22,22.56 356.79,23.79 355.92,24.67
             355.07,25.56 353.98,26.00 352.66,26.00
             351.33,26.00 350.24,25.56 349.38,24.67
             348.52,23.79 348.09,22.56 348.09,21.00
             348.09,19.44 348.52,18.21 349.38,17.33
             350.24,16.45 351.33,16.00 352.66,16.00 Z
           M 369.62,58.00
           C 369.62,58.00 361.94,58.00 361.94,58.00
             361.94,58.00 361.94,37.77 361.94,37.77
             361.94,34.63 363.05,32.20 365.30,30.47
             367.42,28.82 370.32,28.00 374.00,28.00
             377.68,28.00 380.60,28.84 382.78,30.53
             384.97,32.22 386.06,34.63 386.06,37.77
             386.06,37.77 386.06,58.00 386.06,58.00
             386.06,58.00 378.38,58.00 378.38,58.00
             378.38,58.00 378.38,40.64 378.38,40.64
             378.38,37.55 376.91,36.00 374.00,36.00
             371.08,36.00 369.62,37.55 369.62,40.64
             369.62,40.64 369.62,58.00 369.62,58.00 Z
           M 397.34,48.00
           C 398.78,48.00 399.97,48.48 400.91,49.45
             401.84,50.41 402.31,51.59 402.31,53.00
             402.31,54.41 401.84,55.59 400.91,56.56
             399.97,57.52 398.78,58.00 397.34,58.00
             395.89,58.00 394.70,57.52 393.77,56.56
             392.83,55.59 392.36,54.41 392.36,53.00
             392.36,51.59 392.83,50.41 393.77,49.45
             394.70,48.48 395.89,48.00 397.34,48.00 Z
           M 434.81,58.00
           C 434.81,58.00 425.94,58.00 425.94,58.00
             425.94,58.00 425.94,30.09 425.94,30.09
             425.94,26.17 427.27,22.84 429.92,20.11
             432.59,17.37 436.12,16.00 440.52,16.00
             444.80,16.00 448.30,17.35 451.02,20.05
             453.73,22.73 455.09,26.05 455.09,30.00
             455.09,33.95 453.80,37.25 451.20,39.91
             448.47,42.64 444.91,44.00 440.52,44.00
             440.52,44.00 437.28,44.00 437.28,44.00
             437.28,44.00 437.28,36.00 437.28,36.00
             440.20,36.00 442.32,35.68 443.64,35.03
             445.36,34.15 446.22,32.49 446.22,30.06
             446.22,28.17 445.71,26.68 444.69,25.61
             443.66,24.54 442.27,24.00 440.52,24.00
             438.75,24.00 437.36,24.53 436.34,25.58
             435.32,26.63 434.81,28.09 434.81,29.94
             434.81,29.94 434.81,58.00 434.81,58.00 Z
           M 466.92,58.00
           C 466.92,58.00 458.77,58.00 458.77,58.00
             458.77,58.00 458.77,28.00 458.77,28.00
             458.77,28.00 466.02,28.00 466.02,28.00
             466.02,28.00 466.02,34.00 466.02,34.00
             466.02,34.00 466.14,34.00 466.14,34.00
             467.50,30.00 469.96,28.00 473.52,28.00
             473.52,28.00 475.14,28.00 475.14,28.00
             475.14,28.00 475.14,36.00 475.14,36.00
             475.14,36.00 473.28,36.00 473.28,36.00
             471.36,36.00 469.82,36.65 468.66,37.95
             467.50,39.25 466.92,41.03 466.92,43.30
             466.92,43.30 466.92,58.00 466.92,58.00 Z
           M 492.67,36.00
           C 490.52,36.00 488.80,36.62 487.52,37.84
             486.23,39.07 485.59,40.79 485.59,43.00
             485.59,45.21 486.23,46.93 487.52,48.16
             488.80,49.39 490.52,50.00 492.67,50.00
             494.84,50.00 496.56,49.39 497.84,48.16
             499.12,46.93 499.77,45.21 499.77,43.00
             499.77,40.79 499.12,39.07 497.84,37.84
             496.56,36.62 494.84,36.00 492.67,36.00 Z
           M 492.69,28.00
           C 497.08,28.00 500.68,29.47 503.48,32.41
             506.12,35.27 507.44,38.80 507.44,43.00
             507.44,47.20 506.12,50.73 503.48,53.59
             500.68,56.53 497.08,58.00 492.69,58.00
             488.28,58.00 484.68,56.53 481.88,53.59
             479.24,50.73 477.92,47.20 477.92,43.00
             477.92,38.80 479.24,35.27 481.88,32.41
             484.68,29.47 488.28,28.00 492.69,28.00 Z
           M 518.95,28.00
           C 518.95,28.00 524.55,28.00 524.55,28.00
             524.55,28.00 524.55,36.00 524.55,36.00
             524.55,36.00 518.95,36.00 518.95,36.00
             518.95,36.00 518.95,46.77 518.95,46.77
             518.95,48.92 519.83,50.00 521.59,50.00
             521.59,50.00 524.55,50.00 524.55,50.00
             524.55,50.00 524.55,58.00 524.55,58.00
             524.55,58.00 520.53,58.00 520.53,58.00
             514.36,58.00 511.28,54.44 511.28,47.31
             511.28,47.31 511.28,21.00 511.28,21.00
             511.28,21.00 518.95,21.00 518.95,21.00
             518.95,21.00 518.95,28.00 518.95,28.00 Z
           M 550.19,44.80
           C 550.19,44.80 557.92,45.59 557.92,45.59
             557.20,49.36 555.42,52.37 552.58,54.62
             549.74,56.88 546.29,58.00 542.20,58.00
             537.80,58.00 534.19,56.53 531.39,53.59
             528.75,50.73 527.44,47.20 527.44,43.00
             527.44,38.80 528.75,35.27 531.39,32.41
             534.19,29.47 537.80,28.00 542.20,28.00
             545.84,28.00 548.94,28.89 551.50,30.66
             553.66,32.19 555.27,34.20 556.36,36.69
             556.36,36.69 541.53,47.86 541.53,47.86
             541.53,47.86 537.81,43.08 537.81,43.08
             537.81,43.08 545.44,37.30 545.44,37.30
             544.68,36.43 543.41,36.00 541.66,36.00
             539.78,36.00 538.22,36.68 536.98,38.05
             535.74,39.40 535.12,41.05 535.12,43.00
             535.12,44.76 535.79,46.34 537.11,47.73
             538.55,49.25 540.34,50.00 542.50,50.00
             544.46,50.00 546.14,49.54 547.56,48.61
             548.99,47.67 549.86,46.40 550.19,44.80 Z
           M 580.55,28.00
           C 580.55,28.00 580.55,36.00 580.55,36.00
             580.55,36.00 575.45,36.00 575.45,36.00
             573.33,36.00 571.63,36.65 570.38,37.95
             569.11,39.25 568.48,40.93 568.48,43.00
             568.48,45.07 569.11,46.76 570.38,48.06
             571.63,49.36 573.33,50.00 575.45,50.00
             575.45,50.00 580.55,50.00 580.55,50.00
             580.55,50.00 580.55,58.00 580.55,58.00
             580.55,58.00 575.20,58.00 575.20,58.00
             570.72,58.00 567.20,56.65 564.64,53.95
             562.08,51.26 560.80,47.61 560.80,43.00
             560.80,38.40 562.08,34.75 564.64,32.05
             567.20,29.35 570.72,28.00 575.20,28.00
             575.20,28.00 580.55,28.00 580.55,28.00 Z
           M 591.95,28.00
           C 591.95,28.00 597.55,28.00 597.55,28.00
             597.55,28.00 597.55,36.00 597.55,36.00
             597.55,36.00 591.95,36.00 591.95,36.00
             591.95,36.00 591.95,46.77 591.95,46.77
             591.95,48.92 592.83,50.00 594.59,50.00
             594.59,50.00 597.55,50.00 597.55,50.00
             597.55,50.00 597.55,58.00 597.55,58.00
             597.55,58.00 593.53,58.00 593.53,58.00
             587.36,58.00 584.28,54.44 584.28,47.31
             584.28,47.31 584.28,21.00 584.28,21.00
             584.28,21.00 591.95,21.00 591.95,21.00
             591.95,21.00 591.95,28.00 591.95,28.00 Z
           M 607.34,48.00
           C 608.78,48.00 609.97,48.48 610.91,49.45
             611.84,50.41 612.31,51.59 612.31,53.00
             612.31,54.41 611.84,55.59 610.91,56.56
             609.97,57.52 608.78,58.00 607.34,58.00
             605.89,58.00 604.70,57.52 603.77,56.56
             602.83,55.59 602.36,54.41 602.36,53.00
             602.36,51.59 602.83,50.41 603.77,49.45
             604.70,48.48 605.89,48.00 607.34,48.00 Z" />
</svg>
